<svg id="visual" viewBox="0 0 900 200" width="900" height="200" xmlns="http://www.w3.org/2000/svg" xmlns:xlink="http://www.w3.org/1999/xlink" version="1.1"><rect x="0" y="0" width="900" height="200" fill="#2a2e35"></rect><path d="M0 83L25 84.2C50 85.3 100 87.7 150 86C200 84.3 250 78.7 300 78C350 77.3 400 81.7 450 84.3C500 87 550 88 600 85.7C650 83.3 700 77.7 750 75.5C800 73.3 850 74.7 875 75.3L900 76L900 201L875 201C850 201 800 201 750 201C700 201 650 201 600 201C550 201 500 201 450 201C400 201 350 201 300 201C250 201 200 201 150 201C100 201 50 201 25 201L0 201Z" fill="#22252b"></path><path d="M0 115L25 114.5C50 114 100 113 150 111C200 109 250 106 300 106.5C350 107 400 111 450 113.5C500 116 550 117 600 114.3C650 111.7 700 105.3 750 105.7C800 106 850 113 875 116.5L900 120L900 201L875 201C850 201 800 201 750 201C700 201 650 201 600 201C550 201 500 201 450 201C400 201 350 201 300 201C250 201 200 201 150 201C100 201 50 201 25 201L0 201Z" fill="#1d2026"></path><path d="M0 133L25 133.8C50 134.7 100 136.3 150 136.2C200 136 250 134 300 133.5C350 133 400 134 450 134.7C500 135.3 550 135.7 600 136C650 136.3 700 136.7 750 137.2C800 137.7 850 138.3 875 138.7L900 139L900 201L875 201C850 201 800 201 750 201C700 201 650 201 600 201C550 201 500 201 450 201C400 201 350 201 300 201C250 201 200 201 150 201C100 201 50 201 25 201L0 201Z" fill="#171c20"></path><path d="M0 158L25 160.8C50 163.7 100 169.3 150 171.5C200 173.7 250 172.3 300 171C350 169.7 400 168.3 450 166.2C500 164 550 161 600 160.5C650 160 700 162 750 162C800 162 850 160 875 159L900 158L900 201L875 201C850 201 800 201 750 201C700 201 650 201 600 201C550 201 500 201 450 201C400 201 350 201 300 201C250 201 200 201 150 201C100 201 50 201 25 201L0 201Z" fill="#12181b"></path></svg>