<svg id="visual" viewBox="0 0 900 200" width="900" height="200" xmlns="http://www.w3.org/2000/svg" xmlns:xlink="http://www.w3.org/1999/xlink" version="1.1"><rect x="0" y="0" width="900" height="200" fill="#f8f8f8"></rect><path d="M0 76L25 74.8C50 73.7 100 71.3 150 74C200 76.7 250 84.3 300 87.5C350 90.7 400 89.3 450 89.5C500 89.7 550 91.3 600 90.2C650 89 700 85 750 81.7C800 78.3 850 75.7 875 74.3L900 73L900 201L875 201C850 201 800 201 750 201C700 201 650 201 600 201C550 201 500 201 450 201C400 201 350 201 300 201C250 201 200 201 150 201C100 201 50 201 25 201L0 201Z" fill="#dbe1e8"></path><path d="M0 119L25 118.7C50 118.3 100 117.7 150 117.5C200 117.3 250 117.7 300 116.5C350 115.3 400 112.7 450 111C500 109.3 550 108.7 600 107.7C650 106.7 700 105.3 750 104.3C800 103.3 850 102.7 875 102.3L900 102L900 201L875 201C850 201 800 201 750 201C700 201 650 201 600 201C550 201 500 201 450 201C400 201 350 201 300 201C250 201 200 201 150 201C100 201 50 201 25 201L0 201Z" fill="#cdd5df"></path><path d="M0 139L25 139.3C50 139.7 100 140.3 150 141.2C200 142 250 143 300 143C350 143 400 142 450 140.7C500 139.3 550 137.7 600 138.8C650 140 700 144 750 145.8C800 147.7 850 147.3 875 147.2L900 147L900 201L875 201C850 201 800 201 750 201C700 201 650 201 600 201C550 201 500 201 450 201C400 201 350 201 300 201C250 201 200 201 150 201C100 201 50 201 25 201L0 201Z" fill="#bfc9d6"></path><path d="M0 166L25 166.7C50 167.3 100 168.7 150 170.3C200 172 250 174 300 172.5C350 171 400 166 450 163.7C500 161.3 550 161.7 600 164.2C650 166.7 700 171.3 750 172.5C800 173.7 850 171.3 875 170.2L900 169L900 201L875 201C850 201 800 201 750 201C700 201 650 201 600 201C550 201 500 201 450 201C400 201 350 201 300 201C250 201 200 201 150 201C100 201 50 201 25 201L0 201Z" fill="#b2becd"></path></svg>