<svg id="visual" viewBox="0 0 900 200" width="900" height="200" xmlns="http://www.w3.org/2000/svg" xmlns:xlink="http://www.w3.org/1999/xlink" version="1.1"><rect x="0" y="0" width="900" height="200" fill="#f8f8f8"></rect><path d="M0 128L25 127C50 126 100 124 150 123.5C200 123 250 124 300 123C350 122 400 119 450 118.3C500 117.7 550 119.3 600 120.8C650 122.3 700 123.7 750 124.2C800 124.7 850 124.3 875 124.2L900 124L900 0L875 0C850 0 800 0 750 0C700 0 650 0 600 0C550 0 500 0 450 0C400 0 350 0 300 0C250 0 200 0 150 0C100 0 50 0 25 0L0 0Z" fill="#dbe1e8"></path><path d="M0 93L25 92C50 91 100 89 150 87.5C200 86 250 85 300 83.7C350 82.3 400 80.7 450 81.8C500 83 550 87 600 89C650 91 700 91 750 91.8C800 92.7 850 94.3 875 95.2L900 96L900 0L875 0C850 0 800 0 750 0C700 0 650 0 600 0C550 0 500 0 450 0C400 0 350 0 300 0C250 0 200 0 150 0C100 0 50 0 25 0L0 0Z" fill="#cdd5df"></path><path d="M0 61L25 60.7C50 60.3 100 59.7 150 59C200 58.3 250 57.7 300 57.3C350 57 400 57 450 55.8C500 54.7 550 52.3 600 53.8C650 55.3 700 60.7 750 62.8C800 65 850 64 875 63.5L900 63L900 0L875 0C850 0 800 0 750 0C700 0 650 0 600 0C550 0 500 0 450 0C400 0 350 0 300 0C250 0 200 0 150 0C100 0 50 0 25 0L0 0Z" fill="#bfc9d6"></path><path d="M0 23L25 23.7C50 24.3 100 25.7 150 27.8C200 30 250 33 300 35C350 37 400 38 450 37.3C500 36.7 550 34.3 600 34C650 33.7 700 35.3 750 34.2C800 33 850 29 875 27L900 25L900 0L875 0C850 0 800 0 750 0C700 0 650 0 600 0C550 0 500 0 450 0C400 0 350 0 300 0C250 0 200 0 150 0C100 0 50 0 25 0L0 0Z" fill="#b2becd"></path></svg>