<svg id="visual" viewBox="0 0 900 200" width="900" height="200" xmlns="http://www.w3.org/2000/svg" xmlns:xlink="http://www.w3.org/1999/xlink" version="1.1"><rect x="0" y="0" width="900" height="200" fill="#f8f8f8"></rect><path d="M0 108L37.5 105.8C75 103.7 150 99.3 225 99.3C300 99.3 375 103.7 450 106C525 108.3 600 108.7 675 113.2C750 117.7 825 126.3 862.5 130.7L900 135L900 0L862.5 0C825 0 750 0 675 0C600 0 525 0 450 0C375 0 300 0 225 0C150 0 75 0 37.5 0L0 0Z" fill="#f8f8f8"></path><path d="M0 120L37.5 118.2C75 116.3 150 112.7 225 111.8C300 111 375 113 450 108.3C525 103.7 600 92.3 675 87.7C750 83 825 85 862.5 86L900 87L900 0L862.5 0C825 0 750 0 675 0C600 0 525 0 450 0C375 0 300 0 225 0C150 0 75 0 37.5 0L0 0Z" fill="#f0f2f4"></path><path d="M0 69L37.5 71.8C75 74.7 150 80.3 225 83.3C300 86.3 375 86.7 450 87C525 87.3 600 87.7 675 89C750 90.3 825 92.7 862.5 93.8L900 95L900 0L862.5 0C825 0 750 0 675 0C600 0 525 0 450 0C375 0 300 0 225 0C150 0 75 0 37.5 0L0 0Z" fill="#e9ecf0"></path><path d="M0 69L37.5 63.8C75 58.7 150 48.3 225 48.3C300 48.3 375 58.7 450 58.5C525 58.3 600 47.7 675 47C750 46.3 825 55.7 862.5 60.3L900 65L900 0L862.5 0C825 0 750 0 675 0C600 0 525 0 450 0C375 0 300 0 225 0C150 0 75 0 37.5 0L0 0Z" fill="#e2e6ec"></path><path d="M0 42L37.5 41.2C75 40.3 150 38.7 225 37.8C300 37 375 37 450 34.8C525 32.7 600 28.3 675 26.7C750 25 825 26 862.5 26.5L900 27L900 0L862.5 0C825 0 750 0 675 0C600 0 525 0 450 0C375 0 300 0 225 0C150 0 75 0 37.5 0L0 0Z" fill="#dbe1e8"></path></svg>