<svg id="visual" viewBox="0 0 900 200" width="900" height="200" xmlns="http://www.w3.org/2000/svg" xmlns:xlink="http://www.w3.org/1999/xlink" version="1.1"><rect x="0" y="0" width="900" height="200" fill="#f8f8f8"></rect><path d="M0 67L37.5 66C75 65 150 63 225 64.2C300 65.3 375 69.7 450 71.3C525 73 600 72 675 71.3C750 70.7 825 70.3 862.5 70.2L900 70L900 201L862.5 201C825 201 750 201 675 201C600 201 525 201 450 201C375 201 300 201 225 201C150 201 75 201 37.5 201L0 201Z" fill="#f8f8f8"></path><path d="M0 94L37.5 95.5C75 97 150 100 225 97.7C300 95.3 375 87.7 450 84.2C525 80.7 600 81.3 675 82.2C750 83 825 84 862.5 84.5L900 85L900 201L862.5 201C825 201 750 201 675 201C600 201 525 201 450 201C375 201 300 201 225 201C150 201 75 201 37.5 201L0 201Z" fill="#f0f2f4"></path><path d="M0 114L37.5 115.8C75 117.7 150 121.3 225 123.7C300 126 375 127 450 123.5C525 120 600 112 675 111.8C750 111.7 825 119.3 862.5 123.2L900 127L900 201L862.5 201C825 201 750 201 675 201C600 201 525 201 450 201C375 201 300 201 225 201C150 201 75 201 37.5 201L0 201Z" fill="#e9ecf0"></path><path d="M0 149L37.5 149.5C75 150 150 151 225 148C300 145 375 138 450 136.3C525 134.7 600 138.3 675 143.5C750 148.7 825 155.3 862.5 158.7L900 162L900 201L862.5 201C825 201 750 201 675 201C600 201 525 201 450 201C375 201 300 201 225 201C150 201 75 201 37.5 201L0 201Z" fill="#e2e6ec"></path><path d="M0 176L37.5 175.3C75 174.7 150 173.3 225 173.3C300 173.3 375 174.7 450 172.7C525 170.7 600 165.3 675 164.3C750 163.3 825 166.7 862.5 168.3L900 170L900 201L862.5 201C825 201 750 201 675 201C600 201 525 201 450 201C375 201 300 201 225 201C150 201 75 201 37.5 201L0 201Z" fill="#dbe1e8"></path></svg>