<svg id="visual" viewBox="0 0 900 200" width="900" height="200" xmlns="http://www.w3.org/2000/svg" xmlns:xlink="http://www.w3.org/1999/xlink" version="1.1"><rect x="0" y="0" width="900" height="200" fill="#2a2e35"></rect><path d="M0 122L25 123.2C50 124.3 100 126.7 150 124C200 121.3 250 113.7 300 110.5C350 107.3 400 108.7 450 108.5C500 108.3 550 106.7 600 107.8C650 109 700 113 750 116.3C800 119.7 850 122.3 875 123.7L900 125L900 0L875 0C850 0 800 0 750 0C700 0 650 0 600 0C550 0 500 0 450 0C400 0 350 0 300 0C250 0 200 0 150 0C100 0 50 0 25 0L0 0Z" fill="#22252b"></path><path d="M0 79L25 79.3C50 79.7 100 80.3 150 80.5C200 80.7 250 80.3 300 81.5C350 82.7 400 85.3 450 87C500 88.7 550 89.3 600 90.3C650 91.3 700 92.7 750 93.7C800 94.7 850 95.3 875 95.7L900 96L900 0L875 0C850 0 800 0 750 0C700 0 650 0 600 0C550 0 500 0 450 0C400 0 350 0 300 0C250 0 200 0 150 0C100 0 50 0 25 0L0 0Z" fill="#1d2026"></path><path d="M0 59L25 58.7C50 58.3 100 57.7 150 56.8C200 56 250 55 300 55C350 55 400 56 450 57.3C500 58.7 550 60.3 600 59.2C650 58 700 54 750 52.2C800 50.3 850 50.7 875 50.8L900 51L900 0L875 0C850 0 800 0 750 0C700 0 650 0 600 0C550 0 500 0 450 0C400 0 350 0 300 0C250 0 200 0 150 0C100 0 50 0 25 0L0 0Z" fill="#171c20"></path><path d="M0 32L25 31.3C50 30.7 100 29.3 150 27.7C200 26 250 24 300 25.5C350 27 400 32 450 34.3C500 36.7 550 36.3 600 33.8C650 31.3 700 26.7 750 25.5C800 24.3 850 26.7 875 27.8L900 29L900 0L875 0C850 0 800 0 750 0C700 0 650 0 600 0C550 0 500 0 450 0C400 0 350 0 300 0C250 0 200 0 150 0C100 0 50 0 25 0L0 0Z" fill="#12181b"></path></svg>